<svg width="30" height="28" viewBox="0 0 30 28" fill="none" xmlns="http://www.w3.org/2000/svg">
<path d="M22.3259 0C22.9 0.103884 23.4799 0.169496 24.0423 0.322588C26.3035 0.951362 27.9847 2.25812 29.0802 4.21005C29.7363 5.38012 30.0058 6.63219 29.9999 7.94989C29.994 12.0123 29.9999 16.0747 29.9999 20.1372C29.9999 21.9141 29.4668 23.538 28.2952 24.9432C26.614 26.9498 24.3879 27.9668 21.6639 27.9886C19.2738 28.0105 16.8838 27.9941 14.4878 27.9941C12.4961 27.9941 10.5044 27.9941 8.51263 27.9941C5.56604 27.9886 3.20525 26.8951 1.48299 24.6534C0.469549 23.3357 0.00676428 21.8376 0.00676428 20.2192C0.000906242 16.0529 -0.00495179 11.892 0.00676428 7.72571C0.0184803 4.34127 2.32069 1.40517 5.77107 0.377264C6.38617 0.196834 7.04227 0.125755 7.68079 0C12.5605 0 17.4461 0 22.3259 0ZM15.0033 25.5063C15.0033 25.5118 15.0033 25.5118 15.0033 25.5063C17.0712 25.5118 19.1391 25.5118 21.2129 25.5118C21.9861 25.5118 22.7535 25.479 23.4916 25.2384C25.8583 24.473 27.3228 22.5484 27.3345 20.1481C27.3462 16.0583 27.3404 11.9686 27.3404 7.87881C27.3404 6.89464 27.1295 5.95421 26.5788 5.1122C25.4306 3.3407 23.7201 2.48776 21.5175 2.48229C17.165 2.47682 12.8124 2.48229 8.45991 2.48229C7.59292 2.48229 6.74351 2.60258 5.95853 2.96344C3.79106 3.96401 2.68389 5.60975 2.67217 7.85694C2.64874 11.9576 2.66631 16.0583 2.67217 20.1536C2.67217 21.1377 2.88892 22.0727 3.45129 22.9147C4.58775 24.6315 6.25729 25.4954 8.4189 25.5063C10.6098 25.5173 12.8066 25.5063 15.0033 25.5063Z" fill="white"/>
<path d="M22 14.0185C21.9602 17.9069 18.5612 21.042 14.4461 20.9996C10.3253 20.9571 6.97176 17.7902 7.00018 13.9655C7.0286 10.1195 10.4276 6.96319 14.5143 7.00032C18.7033 7.03746 21.9773 10.1673 22 14.0185ZM14.4688 18.5859C17.1914 18.6018 19.4081 16.5489 19.4081 14.0079C19.4138 11.4828 17.2255 9.44051 14.4972 9.4246C11.8201 9.40868 9.60909 11.4563 9.58636 13.9814C9.56362 16.4958 11.7576 18.57 14.4688 18.5859Z" fill="white"/>
<path d="M22.9729 5.00075C24.058 4.97063 24.9633 5.8559 24.9993 6.98808C25.0293 8.04198 24.124 8.97542 23.0568 8.99951C21.9477 9.0236 21.0305 8.15038 21.0005 7.04229C20.9765 5.94624 21.8578 5.03086 22.9729 5.00075Z" fill="white"/>
</svg>
