<svg width="100" height="60" viewBox="0 0 100 60" fill="none" xmlns="http://www.w3.org/2000/svg">
<path d="M97.5237 15.6671L99.9703 2.09469C100.174 1.0043 99.3004 0 98.1936 0H52.4646H18.3571C17.7164 0 17.1047 0.344333 16.7843 0.889526L0.240296 29.1248C-0.0800986 29.67 -0.0800986 30.3587 0.240296 30.9039L16.7843 59.1105C17.1047 59.6557 17.7164 60 18.3571 60H41.7459H52.4646H88.5817C89.4556 60 90.2128 59.3687 90.3585 58.5079L92.8051 44.7633C93.009 43.6729 92.1352 42.6686 91.0284 42.6686H70.1445C69.0086 42.6686 68.1639 41.6643 68.3678 40.5452L68.659 38.9957C68.8047 38.1349 69.562 37.5323 70.4358 37.5323H88.64C89.5138 37.5323 90.2711 36.901 90.4459 36.0402L92.5139 24.3615C92.7177 23.2712 91.8439 22.2669 90.708 22.2669H73.7854C72.6494 22.2669 71.8047 21.2626 71.9795 20.1722L72.2416 18.6227C72.3873 17.7618 73.1446 17.1306 74.0475 17.1306H95.6887C96.6207 17.1593 97.378 16.528 97.5237 15.6671ZM22.3475 49.67L11.3667 30.9039C11.0463 30.3587 11.0463 29.67 11.3667 29.1248L22.3475 10.3587C22.6679 9.81349 23.2796 9.46915 23.9203 9.46915H45.9111C46.5518 9.46915 47.1635 9.81349 47.4839 10.3587L58.4647 29.1248C58.7851 29.67 58.7851 30.3587 58.4647 30.9039L47.4839 49.67C47.1635 50.2152 46.5518 50.5595 45.9111 50.5595H23.9203C23.2504 50.5595 22.6679 50.2152 22.3475 49.67Z" fill="url(#paint0_linear_1_13)"/>
<defs>
<linearGradient id="paint0_linear_1_13" x1="9.24227" y1="30.0089" x2="210.4" y2="30.0089" gradientUnits="userSpaceOnUse">
<stop stop-color="#B8005F"/>
<stop offset="1" stop-color="#00FFFF"/>
</linearGradient>
</defs>
</svg>
