<svg width="20" height="20" viewBox="0 0 20 20" fill="none" xmlns="http://www.w3.org/2000/svg">
<path d="M0 3.92534C0.035438 3.76218 0.0637884 3.60612 0.0992264 3.44296C0.212628 3.00314 0.418168 2.60588 0.73711 2.28666C1.31829 1.70496 1.89239 1.12327 2.48066 0.548667C2.9697 0.073379 3.53671 -0.160718 4.20295 0.123036C4.43684 0.22235 4.66364 0.371321 4.84083 0.548667C5.71969 1.40702 6.58438 2.27247 7.44198 3.14502C7.82471 3.53518 8.07277 3.98918 7.98772 4.55669C7.92393 4.98232 7.67587 5.30864 7.38528 5.60658C6.89623 6.09606 6.40719 6.58553 5.91814 7.06791C5.66299 7.32329 5.66299 7.38714 5.80474 7.71345C6.36466 8.96197 7.21517 9.99767 8.12947 10.9908C9.04377 11.9769 10.0431 12.8636 11.1842 13.5801C11.574 13.8213 11.9922 14.0199 12.3962 14.2398C12.5805 14.3391 12.7222 14.2611 12.8569 14.1263C13.3672 13.6155 13.8633 13.0977 14.3878 12.6011C14.5934 12.4025 14.8273 12.218 15.0824 12.1045C15.6069 11.8634 16.1101 11.9769 16.5637 12.3032C16.6771 12.3883 16.7834 12.4876 16.8897 12.5869C17.719 13.4098 18.5482 14.2256 19.3633 15.0627C19.5618 15.2684 19.746 15.5025 19.8595 15.7579C20.1146 16.3041 20.0154 16.8574 19.6185 17.2902C18.9806 17.9924 18.3073 18.6664 17.6269 19.3261C17.2512 19.6879 16.7693 19.8723 16.2519 19.9574C16.1881 19.9645 16.1243 19.9858 16.0676 20C15.7912 20 15.5218 20 15.2454 20C15.1958 19.9858 15.1533 19.9716 15.1037 19.9645C14.4871 19.8368 13.8492 19.7588 13.2538 19.5673C11.4748 19.0069 9.86594 18.0918 8.35628 17.0206C5.61338 15.0769 3.41622 12.6295 1.75064 9.70683C1.11984 8.60728 0.609533 7.45098 0.276416 6.22375C0.155927 5.78393 0.0921388 5.32992 0 4.87591C0 4.56379 0 4.24456 0 3.92534Z" fill="white"/>
</svg>
